PathFileType	4	(X/Y/Z)	54_2_rein_88_p1_0-1068_filt_butterworth.trc
DataRate	CameraRate	NumFrames	NumMarkers	Units	OrigDataRate	OrigDataStartFrame	OrigNumFrames
60.0	60.0	5	27	m	60.0	267	1068
Frame#	Time	RHip			RKnee			RAnkle			RBigToe			RSmallToe			RHeel			LHip			LKnee			LAnkle			LBigToe			LSmallToe			LHeel			Neck			Head			Nose			RShoulder			RElbow			RWrist			RThumb			RIndex			RPinky			LShoulder			LElbow			LWrist			LThumb			LIndex			LPinky			
		X1	Y1	Z1	X2	Y2	Z2	X3	Y3	Z3	X4	Y4	Z4	X5	Y5	Z5	X6	Y6	Z6	X7	Y7	Z7	X8	Y8	Z8	X9	Y9	Z9	X10	Y10	Z10	X11	Y11	Z11	X12	Y12	Z12	X13	Y13	Z13	X14	Y14	Z14	X15	Y15	Z15	X16	Y16	Z16	X17	Y17	Z17	X18	Y18	Z18	X19	Y19	Z19	X20	Y20	Z20	X21	Y21	Z21	X22	Y22	Z22	X23	Y23	Z23	X24	Y24	Z24	X25	Y25	Z25	X26	Y26	Z26	X27	Y27	Z27	
267	4.45	0.2793566929684677	1.0563230740558747	0.5150343487784704	0.26458042661561126	0.6066104910680468	0.5011481806406405	0.2690276883822097	0.1140689739357266	0.5506215530709314	0.21464978783756844	0.10137782669567343	0.34784969152887024	0.27596561492389615	0.07190698081415485	0.393622963785691	0.2559758246466568	0.02205833823589352	0.6556896240876352	0.05866519454665336	1.0541757820816444	0.5165706485657595	0.07706474377482722	0.5825604953700779	0.5474033319962164	0.06241663977155705	0.1501059865352765	0.5585208308533005	0.06577983838983119	0.09519169943763278	0.3822950204929525	0.009216057806758906	0.06879463839430236	0.43672424128064835	0.07790238642233974	0.08558916551071662	0.6119739274248552	0.2028815727667996	1.635053323805813	0.48192635222968894	0.19940189298022803	1.879979992889104	0.41562434659517833	0.19358586255400945	1.751346029401462	0.36851615784264996	0.3544838665958445	1.5432683072361115	0.45819977301552944	0.40346191338821064	1.2859118315204057	0.5225581750641364	0.3776991232173402	1.2065131847387685	0.29376261968423484	0.31325468644011345	1.2300520076357344	0.09383090348397546	0.32042651493551644	1.2189754100239658	0.10172585311714594	0.3525994511409004	1.1579530509284917	0.16200083473390614	0.0323993301448205	1.561805093057513	0.48256614386821167	-0.033428521757720826	1.2634575640725418	0.5333125648370454	-0.037507881762298564	0.988768102248371	0.4806814311601533	0.015520720878043251	0.9019972479572566	0.41918089794195634	-0.02123653843497932	0.9012423907131657	0.381217249681044	-0.05644896918066075	0.8735147082249919	0.4789966179193981	
268	4.466666666666667	0.27943716715909317	1.0560642365153887	0.5156790867579236	0.26438313389562773	0.606481033684158	0.5012421265113264	0.26895447631446334	0.1144623815237089	0.5501005782502552	0.2146804683123048	0.10190128538512272	0.3478715480504296	0.2759999154217019	0.07185848921875537	0.3923963094739581	0.2559255222354403	0.022192844185035504	0.6555956761030458	0.05863345790079166	1.0538148008697037	0.5165863893468469	0.07713226766187414	0.5829219654874476	0.5475564885543656	0.062381932620112795	0.15039053041659034	0.5586148129718054	0.06538336988383227	0.0934358226297934	0.3848406088226691	0.00944854923960574	0.06969087826168227	0.4366474934566635	0.07780433942899483	0.08644124752266137	0.6106173349947781	0.20265421917759252	1.6336741153739656	0.48302275780596	0.19948233254642422	1.8794736107314571	0.4158940644699049	0.19283504266068946	1.7509580471324755	0.3683997245857923	0.3543706067264345	1.5429280213388676	0.45814507862127923	0.4068939105962758	1.2845605192058487	0.5229357637801759	0.3791058466013197	1.2078097489707726	0.28927862170590385	0.31268768812004644	1.2280588414895306	0.09454753409059208	0.32144132907615	1.216948667793517	0.10440469410535386	0.3568182641786827	1.1574938908448271	0.1617613487231308	0.03232668563391081	1.5618096886572852	0.48233668967604426	-0.033386063946670846	1.2634947293402596	0.5330253852787253	-0.03753670308434048	0.9887506306679462	0.4806917440087884	0.014839663654564895	0.9015353561000372	0.4188467217328095	-0.021150111405878802	0.9008189849116124	0.3820132522532113	-0.056481870356836494	0.873725948726039	0.47902164308583634	
269	4.483333333333333	0.2794864910828757	1.0563842421862877	0.5161191206066504	0.2641642943965446	0.6064719835763892	0.5013361102188866	0.26897475285660216	0.11466808425569294	0.5498213876167172	0.21444706095202698	0.10264968851344261	0.34690844282074484	0.27601018919531317	0.07182638063550058	0.39135439993221827	0.25589596060593867	0.02226569016122238	0.6555437050499483	0.05863903597722921	1.0533916574022228	0.5166424480446056	0.07720276917912866	0.5832996335587206	0.5477012312021423	0.06235460730316435	0.15060478646878198	0.5586741015448513	0.0650204639410491	0.09181492323147822	0.38727401101750336	0.009634681485105682	0.0704117419461675	0.43654457890579684	0.0776032016501373	0.08718161834479775	0.6093704539733648	0.2026519187142195	1.632415237413845	0.4832852431671609	0.19958830601246422	1.8790690284357967	0.41623857628919	0.19202514975666862	1.7505786967442143	0.3682106230761098	0.35439963882877046	1.5423818776808227	0.45797776851789396	0.41013777755601033	1.2835651999646838	0.5236722963112074	0.38097379133845466	1.2078307826106531	0.2852617719975727	0.31239488528389425	1.2235386431621678	0.09447536724044715	0.3226189296043427	1.2128296504319709	0.1069118183759468	0.36080769434872917	1.155072364508376	0.16159293769117133	0.032269884669621086	1.561795742860676	0.482152722712964	-0.03337564701871507	1.263526486273592	0.5329892763605496	-0.03756006172544778	0.9887652621531684	0.48061748539337623	0.013994233259389364	0.9009617760943881	0.4183908516212015	-0.021279296227464405	0.9006661333059897	0.38205941602532967	-0.056482410734394944	0.8733660650305579	0.47909740253888483	
270	4.5	0.2795029309304863	1.0572701840685144	0.5162789356948514	0.26387115625623164	0.6066165951852242	0.501315100899845	0.2691033315635144	0.11459545614522615	0.5498297929591892	0.21395162060095474	0.10369039772024848	0.3452684845075625	0.27600304747202786	0.0718189735745432	0.39085468917033694	0.2558884053584918	0.022282829425736027	0.6555355804809545	0.058677878079802015	1.0529950193702229	0.5167246244904428	0.07727372268846593	0.5836167079845912	0.5478385870346799	0.06233429550196593	0.15074723406295157	0.5587044762893477	0.06473955225274725	0.09054321854861203	0.3892311371396078	0.009756543321099728	0.0708938856633278	0.43642696490684885	0.077296687151735	0.08770412735279418	0.6083757760805508	0.20264827726387352	1.6314846065823951	0.48294625152677106	0.19967835156821923	1.8788250597140403	0.416525069172254	0.1911562149407539	1.7502138950445563	0.367659849189426	0.3545416913216146	1.541669972387073	0.4577869352246303	0.4130361533873812	1.2830376030606103	0.5242077247290965	0.38304606984025436	1.2068222713773207	0.28190002105499506	0.31259052344534444	1.2171132839680094	0.0932765643224617	0.32390239664935094	1.2067328362958336	0.10857540092202592	0.36396517230701375	1.1508887522480615	0.16148042340436203	0.03232237783393111	1.5617236202816578	0.48237018512516605	-0.03338536513835994	1.2635908380561416	0.5330665904375977	-0.03753948780986373	0.9888453450972571	0.4803584054423247	0.01308581712040498	0.900355681278261	0.4178772025418401	-0.02142264353689812	0.9005312367788005	0.3820939218511409	-0.05645760731974969	0.8724822435472083	0.47916044027344123	
271	4.516666666666667	0.2795923648099593	1.0586234580189176	0.5161215695615788	0.2635012733753946	0.6068525341956262	0.5011509398481497	0.2693448276022184	0.11427087228752453	0.5500334249367255	0.21328359022846227	0.10507373295132501	0.3433245382371295	0.2759915189657169	0.0718316085916143	0.39086407624866804	0.2558968779108203	0.022267359056259928	0.6555570929105312	0.058733566977049456	1.0527685072679858	0.5168093254615569	0.07734333418819456	0.5837586006823096	0.5479735656473083	0.06232119736803147	0.1508171833481992	0.558711681005183	0.06447935159376392	0.0898652674264822	0.3902598791911614	0.009812345871020258	0.07113242364562869	0.4363263685865046	0.07692035397142186	0.08806775744153578	0.6075645077599987	0.20241745578629172	1.6309546504543757	0.4823958454842781	0.1997575502287347	1.8787643828657579	0.4167727843544764	0.19025379393911904	1.749834234958536	0.3665509443757412	0.35461984736854485	1.5409190043518246	0.4578133508787108	0.4153861012092829	1.2829376352579407	0.5243078016212371	0.3849846431429258	1.2052120131364268	0.2792357491083259	0.3132099440560131	1.2094802034031327	0.09115166201930255	0.32539806808025507	1.198797315402138	0.10933424146399164	0.3659924426740924	1.1453588300834883	0.16132781994927628	0.03254983497881489	1.5615700373536834	0.4832467383573846	-0.033402325308922405	1.2636955847430582	0.5331732401672707	-0.03746464589777325	0.9889887741589395	0.4799064466806369	0.012232354004443762	0.8997974982493543	0.4173841371264774	-0.02138724025807377	0.9001770814561396	0.38279768066710695	-0.05641601392377765	0.8712474561372968	0.4791699278080055	
